<?xml version="1.0" standalone="no"?>
<!DOCTYPE svg PUBLIC "-//W3C//DTD SVG 20010904//EN"
 "http://www.w3.org/TR/2001/REC-SVG-20010904/DTD/svg10.dtd">
<svg version="1.0" xmlns="http://www.w3.org/2000/svg"
 width="512.000000pt" height="512.000000pt" viewBox="0 0 512.000000 512.000000"
 preserveAspectRatio="xMidYMid meet">
<metadata>
Created by potrace 1.11, written by Peter Selinger 2001-2013
</metadata>
<g transform="translate(0.000000,512.000000) scale(0.100000,-0.100000)"
fill="#000000" stroke="none">
<path d="M208 4954 c-29 -9 -50 -53 -43 -90 7 -42 45 -64 110 -64 l45 0 0
-2125 c0 -2304 -3 -2174 52 -2189 13 -3 978 -6 2146 -6 l2122 0 0 -44 c0 -61
15 -94 47 -107 33 -12 67 -5 93 21 18 18 20 34 20 199 0 99 -4 191 -9 204 -11
29 -61 52 -96 43 -32 -8 -55 -54 -55 -111 l0 -45 -2080 0 -2080 0 0 2080 0
2080 53 0 c71 1 102 24 102 79 0 73 -9 76 -223 78 -103 1 -195 -1 -204 -3z"/>
<path d="M2227 4452 c-84 -42 -175 -176 -260 -382 -32 -80 -103 -282 -125
-360 -268 -942 -356 -1165 -534 -1348 -75 -77 -158 -115 -264 -120 l-84 -5 0
-158 0 -159 125 0 c137 0 178 -11 189 -52 3 -13 6 -150 6 -305 l0 -283 80 0
80 0 0 485 c0 526 1 537 53 551 13 3 105 4 205 2 158 -3 184 -5 199 -21 16
-16 18 -47 21 -357 l3 -340 79 0 80 0 0 1173 c0 1140 1 1173 20 1197 l19 25
200 0 c179 0 202 -2 218 -18 17 -17 18 -64 21 -797 l2 -780 123 0 c67 0 132
-3 145 -6 41 -11 52 -52 52 -188 l0 -124 140 -4 c177 -4 174 -2 178 -138 l4
-99 139 -3 c117 -2 141 -6 156 -21 16 -16 18 -44 21 -277 l3 -260 79 0 80 0 0
480 0 480 -57 1 c-86 1 -112 7 -178 39 -154 74 -284 277 -406 629 -38 109
-129 409 -162 531 -96 353 -216 688 -293 815 -19 32 -34 60 -34 64 0 4 -25 33
-55 64 -92 97 -171 117 -268 69z"/>
<path d="M4203 4144 c-259 -44 -502 -199 -698 -444 -82 -102 -245 -349 -278
-420 -4 -8 -21 -37 -37 -65 -58 -96 -58 -83 -10 -223 86 -251 171 -420 253
-505 59 -60 99 -79 179 -85 l68 -5 0 451 c0 248 3 458 6 467 13 34 58 45 189
45 l125 0 0 133 c1 186 -4 181 179 185 l141 4 0 237 0 237 -22 0 c-13 0 -55
-6 -95 -12z"/>
<path d="M2240 2320 l0 -1520 80 0 80 0 0 1520 0 1520 -80 0 -80 0 0 -1520z"/>
<path d="M645 3512 c-3 -3 -5 -110 -5 -238 l0 -232 140 -4 c118 -2 142 -6 157
-21 16 -16 18 -46 21 -317 l3 -300 57 0 c154 1 268 132 392 455 l27 70 -59 70
c-282 329 -451 458 -666 508 -34 8 -64 12 -67 9z"/>
<path d="M4160 2160 l0 -1360 80 0 80 0 0 1360 0 1360 -80 0 -80 0 0 -1360z"/>
<path d="M3840 2000 l0 -1200 80 0 80 0 0 1200 0 1200 -80 0 -80 0 0 -1200z"/>
<path d="M640 1840 l0 -1040 80 0 80 0 0 1040 0 1040 -80 0 -80 0 0 -1040z"/>
<path d="M2560 1520 l0 -720 80 0 80 0 0 720 0 720 -80 0 -80 0 0 -720z"/>
<path d="M1600 1480 l0 -680 80 0 80 0 0 680 0 680 -80 0 -80 0 0 -680z"/>
<path d="M2880 1360 l0 -560 80 0 80 0 0 560 0 560 -80 0 -80 0 0 -560z"/>
<path d="M960 1280 l0 -480 80 0 80 0 0 480 0 480 -80 0 -80 0 0 -480z"/>
<path d="M3200 1240 l0 -440 80 0 80 0 0 440 0 440 -80 0 -80 0 0 -440z"/>
<path d="M1920 1120 l0 -320 80 0 80 0 0 320 0 320 -80 0 -80 0 0 -320z"/>
<path d="M1280 960 l0 -160 80 0 80 0 0 160 0 160 -80 0 -80 0 0 -160z"/>
<path d="M3520 960 l0 -160 80 0 80 0 0 160 0 160 -80 0 -80 0 0 -160z"/>
</g>
</svg>
